<?xml version="1.0" encoding="utf-8"?>
<!-- Generator: Adobe Illustrator 21.0.0, SVG Export Plug-In . SVG Version: 6.00 Build 0)  -->
<svg version="1.1" id="Layer_1" xmlns="http://www.w3.org/2000/svg" xmlns:xlink="http://www.w3.org/1999/xlink" x="0px" y="0px"
	 viewBox="0 0 1062.4 792" style="enable-background:new 0 0 1062.4 792;" xml:space="preserve">
<style type="text/css">
	.st0{fill:#FCEE21;stroke:#FFF200;stroke-miterlimit:10;}
	.st1{fill:#FFFFFF;stroke:#000000;stroke-miterlimit:10;}
	.st2{fill:none;stroke:#000000;stroke-miterlimit:10;}
	.st3{fill:none;stroke:#000000;stroke-width:2;stroke-miterlimit:10;}
	.st4{stroke:#000000;stroke-miterlimit:10;}
	.st5{fill:#FCEE21;stroke:#FFF200;stroke-width:6;stroke-miterlimit:10;}
	.st6{fill:#30BFC7;stroke:#30BFC7;stroke-width:6;stroke-miterlimit:10;}
	.st7{fill:#30BFC7;}
	.st8{font-family:'CMUConcrete-Roman';}
	.st9{font-size:140px;}
	.st10{font-size:40px;}
	.st11{fill:#FFFFFF;stroke:#FFFFFF;stroke-miterlimit:10;}
	.st12{fill:none;stroke:#FFFFFF;stroke-miterlimit:10;}
	.st13{fill:none;stroke:#FFFFFF;stroke-width:2;stroke-miterlimit:10;}
	.st14{fill:#FFFFFF;stroke:#FFFFFF;stroke-width:2;stroke-miterlimit:10;}
	.st15{fill:#F1F2F2;stroke:#FFFFFF;stroke-miterlimit:10;}
	.st16{fill:#FFFFFF;}
	.st17{font-size:33.123px;}
	.st18{stroke:#000000;stroke-width:2;stroke-miterlimit:10;}
	.st19{font-size:36.2692px;}
	.st20{fill:#FAA51A;stroke:#FFF200;stroke-miterlimit:10;}
	.st21{fill:#7553A2;stroke:#7553A2;stroke-miterlimit:10;}
</style>
<rect x="531.2" y="444.4" class="st0" width="214.2" height="143.4"/>
<path class="st1" d="M102.2,579.2l45.8-92l11.1,13.5l16.7-16.7c-12.9-12.9-30.7-20.8-50.3-20.8c-19.6,0-37.4,8-50.3,20.8
	c-12.9,12.9-20.8,30.7-20.8,50.3c0,19.6,8,37.4,20.8,50.3L94.8,565L102.2,579.2z"/>
<line class="st2" x1="43.3" y1="534.2" x2="28" y2="534.2"/>
<line class="st2" x1="44.5" y1="548.5" x2="29.5" y2="551.2"/>
<line class="st2" x1="48.2" y1="562.4" x2="33.8" y2="567.6"/>
<line class="st2" x1="54.2" y1="575.4" x2="41" y2="583"/>
<line class="st2" x1="62.5" y1="587.1" x2="50.7" y2="596.9"/>
<line class="st2" x1="188.2" y1="459.7" x2="178.4" y2="471.4"/>
<line class="st2" x1="174.3" y1="449.9" x2="166.7" y2="463.2"/>
<line class="st2" x1="158.9" y1="442.7" x2="153.7" y2="457.1"/>
<line class="st2" x1="142.5" y1="438.3" x2="139.8" y2="453.4"/>
<line class="st2" x1="125.6" y1="436.8" x2="125.6" y2="452.1"/>
<line class="st2" x1="108.6" y1="438.3" x2="111.3" y2="453.3"/>
<line class="st2" x1="92.2" y1="442.7" x2="97.4" y2="457"/>
<line class="st2" x1="76.8" y1="449.8" x2="84.4" y2="463.1"/>
<line class="st2" x1="62.9" y1="459.6" x2="72.7" y2="471.3"/>
<line class="st2" x1="50.9" y1="471.6" x2="62.6" y2="481.4"/>
<line class="st2" x1="41.1" y1="485.5" x2="54.3" y2="493.1"/>
<line class="st2" x1="33.9" y1="500.9" x2="48.3" y2="506.1"/>
<line class="st2" x1="29.5" y1="517.3" x2="44.5" y2="520"/>
<line class="st3" x1="55.9" y1="603.8" x2="94.8" y2="565"/>
<line class="st3" x1="94.8" y1="565" x2="102.2" y2="579.2"/>
<line class="st3" x1="102.2" y1="579.2" x2="148" y2="487.1"/>
<line class="st3" x1="159.1" y1="500.6" x2="148" y2="487.1"/>
<line class="st3" x1="194.8" y1="465" x2="159.1" y2="500.6"/>
<polygon class="st4" points="209.2,453 191.8,459.7 195.8,464.5 199.9,469.2 "/>
<path class="st0" d="M185.4,327.7l97.1-195.3l23.6,28.7l35.5-35.5c-27.3-27.3-65-44.2-106.7-44.2c-41.7,0-79.4,16.9-106.7,44.2
	c-27.3,27.3-44.2,65-44.2,106.7s16.9,79.4,44.2,106.7l41.5-41.5L185.4,327.7z"/>
<line class="st5" x1="60.4" y1="232.3" x2="28" y2="232.3"/>
<line class="st5" x1="63" y1="262.6" x2="31.1" y2="268.2"/>
<line class="st5" x1="70.9" y1="292" x2="40.4" y2="303.1"/>
<line class="st5" x1="83.7" y1="319.6" x2="55.6" y2="335.8"/>
<line class="st5" x1="101.1" y1="344.5" x2="76.3" y2="365.3"/>
<line class="st5" x1="367.9" y1="74.1" x2="347.1" y2="99"/>
<line class="st5" x1="338.4" y1="53.4" x2="322.2" y2="81.5"/>
<line class="st5" x1="305.8" y1="38.2" x2="294.7" y2="68.6"/>
<line class="st5" x1="270.9" y1="28.8" x2="265.3" y2="60.7"/>
<line class="st5" x1="235" y1="25.6" x2="235" y2="58"/>
<line class="st5" x1="199.1" y1="28.7" x2="204.7" y2="60.7"/>
<line class="st5" x1="164.3" y1="38" x2="175.3" y2="68.5"/>
<line class="st5" x1="131.6" y1="53.3" x2="147.8" y2="81.3"/>
<line class="st5" x1="102" y1="73.9" x2="122.9" y2="98.8"/>
<line class="st5" x1="76.5" y1="99.4" x2="101.3" y2="120.2"/>
<line class="st5" x1="55.8" y1="128.9" x2="83.9" y2="145.1"/>
<line class="st5" x1="40.5" y1="161.6" x2="71" y2="172.7"/>
<line class="st5" x1="31.2" y1="196.4" x2="63.1" y2="202"/>
<line class="st6" x1="87.2" y1="380" x2="169.6" y2="297.5"/>
<line class="st6" x1="169.6" y1="297.5" x2="185.4" y2="327.7"/>
<line class="st6" x1="185.4" y1="327.7" x2="282.5" y2="132.4"/>
<line class="st6" x1="306.1" y1="161.1" x2="282.5" y2="132.4"/>
<line class="st6" x1="381.8" y1="85.4" x2="306.1" y2="161.1"/>
<polygon class="st6" points="411.4,61 374.5,75.2 383.1,85.3 391.6,95.3 "/>
<text transform="matrix(1 0 0 1 264.1906 239.1043)" class="st7 st8 st9">money</text>
<text transform="matrix(1 0 0 1 389.3489 354.9088)" class="st7 st8 st9">days</text>
<text transform="matrix(1 0 0 1 139.672 534.2386)" class="st8 st10">money</text>
<text transform="matrix(1 0 0 1 177.5371 572.0788)" class="st8 st10">days</text>
<rect x="306.2" y="444.5" class="st6" width="214.2" height="143.4"/>
<path class="st11" d="M378.7,564.9l37.9-76.2l9.2,11.2l13.8-13.8c-10.7-10.7-25.4-17.3-41.7-17.3c-16.3,0-31,6.6-41.7,17.3
	c-10.7,10.7-17.3,25.4-17.3,41.7c0,16.3,6.6,31,17.3,41.7l16.2-16.2L378.7,564.9z"/>
<line class="st12" x1="329.9" y1="527.7" x2="317.2" y2="527.7"/>
<line class="st11" x1="330.9" y1="539.5" x2="318.5" y2="541.7"/>
<line class="st11" x1="334" y1="551" x2="322.1" y2="555.3"/>
<line class="st11" x1="339" y1="561.7" x2="328" y2="568.1"/>
<line class="st11" x1="345.8" y1="571.5" x2="336.1" y2="579.6"/>
<line class="st12" x1="449.9" y1="466" x2="441.8" y2="475.6"/>
<line class="st12" x1="438.4" y1="457.9" x2="432.1" y2="468.8"/>
<line class="st12" x1="425.7" y1="451.9" x2="421.3" y2="463.8"/>
<line class="st12" x1="412.1" y1="448.3" x2="409.9" y2="460.7"/>
<line class="st12" x1="398" y1="447" x2="398" y2="459.7"/>
<line class="st12" x1="384" y1="448.2" x2="386.2" y2="460.7"/>
<line class="st12" x1="370.4" y1="451.9" x2="374.8" y2="463.8"/>
<line class="st12" x1="357.7" y1="457.8" x2="364" y2="468.8"/>
<line class="st12" x1="346.1" y1="465.9" x2="354.3" y2="475.6"/>
<line class="st12" x1="336.2" y1="475.8" x2="345.9" y2="483.9"/>
<line class="st12" x1="328.1" y1="487.3" x2="339" y2="493.7"/>
<line class="st12" x1="322.1" y1="500.1" x2="334" y2="504.4"/>
<line class="st12" x1="318.5" y1="513.7" x2="330.9" y2="515.9"/>
<line class="st13" x1="340.3" y1="585.3" x2="372.5" y2="553.1"/>
<line class="st13" x1="372.5" y1="553.1" x2="378.7" y2="564.9"/>
<line class="st14" x1="378.7" y1="564.9" x2="416.6" y2="488.7"/>
<line class="st14" x1="425.8" y1="499.9" x2="416.6" y2="488.7"/>
<line class="st13" x1="455.3" y1="470.3" x2="425.8" y2="499.9"/>
<polygon class="st15" points="467.3,460.4 452.9,466 456.2,469.9 459.6,473.8 "/>
<text transform="matrix(1 0 0 1 409.7201 527.6949)" class="st16 st8 st17">money</text>
<text transform="matrix(1 0 0 1 441.0756 559.0289)" class="st16 st8 st17">days</text>
<path class="st4" d="M600.5,564.9l37.9-76.2l9.2,11.2l13.8-13.8c-10.7-10.7-25.4-17.3-41.7-17.3c-16.3,0-31,6.6-41.7,17.3
	c-10.7,10.7-17.3,25.4-17.3,41.7c0,16.3,6.6,31,17.3,41.7l16.2-16.2L600.5,564.9z"/>
<line class="st4" x1="551.7" y1="527.6" x2="539" y2="527.6"/>
<line class="st4" x1="552.7" y1="539.5" x2="540.2" y2="541.7"/>
<line class="st4" x1="555.8" y1="550.9" x2="543.9" y2="555.3"/>
<line class="st4" x1="560.8" y1="561.7" x2="549.8" y2="568"/>
<line class="st4" x1="567.6" y1="571.4" x2="557.9" y2="579.6"/>
<line class="st4" x1="671.7" y1="465.9" x2="663.6" y2="475.6"/>
<line class="st4" x1="660.2" y1="457.8" x2="653.9" y2="468.8"/>
<line class="st4" x1="647.4" y1="451.9" x2="643.1" y2="463.7"/>
<line class="st4" x1="633.8" y1="448.2" x2="631.6" y2="460.7"/>
<line class="st4" x1="619.8" y1="447" x2="619.8" y2="459.6"/>
<line class="st4" x1="605.8" y1="448.2" x2="608" y2="460.6"/>
<line class="st4" x1="592.2" y1="451.8" x2="596.5" y2="463.7"/>
<line class="st4" x1="579.4" y1="457.8" x2="585.8" y2="468.7"/>
<line class="st4" x1="567.9" y1="465.8" x2="576" y2="475.5"/>
<line class="st4" x1="557.9" y1="475.8" x2="567.6" y2="483.9"/>
<line class="st4" x1="549.9" y1="487.3" x2="560.8" y2="493.6"/>
<line class="st4" x1="543.9" y1="500" x2="555.8" y2="504.4"/>
<line class="st4" x1="540.3" y1="513.6" x2="552.7" y2="515.8"/>
<line class="st18" x1="562.1" y1="585.3" x2="594.3" y2="553.1"/>
<line class="st18" x1="594.3" y1="553.1" x2="600.5" y2="564.9"/>
<line class="st18" x1="600.5" y1="564.9" x2="638.4" y2="488.6"/>
<line class="st18" x1="647.6" y1="499.8" x2="638.4" y2="488.6"/>
<line class="st18" x1="677.1" y1="470.3" x2="647.6" y2="499.8"/>
<polygon class="st4" points="689.1,460.4 674.6,465.9 678,469.9 681.3,473.8 "/>
<text transform="matrix(0.9949 0 0 1 634.011 523.5458)" class="st8 st19">money</text>
<text transform="matrix(0.9949 0 0 1 668.1712 557.8563)" class="st8 st19">days</text>
<rect x="531.2" y="603.3" class="st20" width="214.2" height="143.4"/>
<path class="st11" d="M600.2,726.3l37.9-76.2l9.2,11.2l13.8-13.8c-10.7-10.7-25.4-17.3-41.7-17.3c-16.3,0-31,6.6-41.7,17.3
	c-10.7,10.7-17.3,25.4-17.3,41.7s6.6,31,17.3,41.7l16.2-16.2L600.2,726.3z"/>
<line class="st12" x1="551.4" y1="689.1" x2="538.8" y2="689.1"/>
<line class="st11" x1="552.4" y1="700.9" x2="540" y2="703.1"/>
<line class="st11" x1="555.5" y1="712.4" x2="543.6" y2="716.7"/>
<line class="st11" x1="560.5" y1="723.1" x2="549.5" y2="729.5"/>
<line class="st11" x1="567.3" y1="732.9" x2="557.6" y2="741"/>
<line class="st12" x1="671.4" y1="627.4" x2="663.3" y2="637"/>
<line class="st12" x1="659.9" y1="619.3" x2="653.6" y2="630.2"/>
<line class="st12" x1="647.2" y1="613.3" x2="642.8" y2="625.2"/>
<line class="st12" x1="633.6" y1="609.7" x2="631.4" y2="622.1"/>
<line class="st12" x1="619.6" y1="608.4" x2="619.6" y2="621.1"/>
<line class="st12" x1="605.5" y1="609.6" x2="607.7" y2="622.1"/>
<line class="st12" x1="591.9" y1="613.3" x2="596.3" y2="625.2"/>
<line class="st12" x1="579.2" y1="619.2" x2="585.5" y2="630.2"/>
<line class="st12" x1="567.7" y1="627.3" x2="575.8" y2="637"/>
<line class="st12" x1="557.7" y1="637.2" x2="567.4" y2="645.3"/>
<line class="st12" x1="549.6" y1="648.7" x2="560.6" y2="655.1"/>
<line class="st12" x1="543.7" y1="661.5" x2="555.5" y2="665.8"/>
<line class="st12" x1="540" y1="675.1" x2="552.5" y2="677.3"/>
<line class="st13" x1="561.9" y1="746.7" x2="594" y2="714.5"/>
<line class="st13" x1="594" y1="714.5" x2="600.2" y2="726.3"/>
<line class="st14" x1="600.2" y1="726.3" x2="638.1" y2="650.1"/>
<line class="st14" x1="647.3" y1="661.3" x2="638.1" y2="650.1"/>
<line class="st13" x1="676.9" y1="631.7" x2="647.3" y2="661.3"/>
<polygon class="st15" points="688.8,621.8 674.4,627.4 677.7,631.3 681.1,635.2 "/>
<text transform="matrix(1 0 0 1 631.2451 689.0922)" class="st16 st8 st17">money</text>
<text transform="matrix(1 0 0 1 662.6005 720.4261)" class="st16 st8 st17">days</text>
<rect x="303.9" y="602.1" class="st21" width="214.2" height="143.4"/>
<path class="st11" d="M372.9,725.1l37.9-76.2l9.2,11.2l13.8-13.8c-10.7-10.7-25.4-17.3-41.7-17.3c-16.3,0-31,6.6-41.7,17.3
	c-10.7,10.7-17.3,25.4-17.3,41.7s6.6,31,17.3,41.7l16.2-16.2L372.9,725.1z"/>
<line class="st12" x1="324.1" y1="687.9" x2="311.4" y2="687.9"/>
<line class="st11" x1="325.1" y1="699.8" x2="312.6" y2="701.9"/>
<line class="st11" x1="328.1" y1="711.2" x2="316.2" y2="715.5"/>
<line class="st11" x1="333.1" y1="722" x2="322.2" y2="728.3"/>
<line class="st11" x1="339.9" y1="731.7" x2="330.2" y2="739.8"/>
<line class="st12" x1="444.1" y1="626.2" x2="436" y2="635.9"/>
<line class="st12" x1="432.6" y1="618.1" x2="426.2" y2="629.1"/>
<line class="st12" x1="419.8" y1="612.1" x2="415.5" y2="624"/>
<line class="st12" x1="406.2" y1="608.5" x2="404" y2="621"/>
<line class="st12" x1="392.2" y1="607.3" x2="392.2" y2="619.9"/>
<line class="st12" x1="378.2" y1="608.5" x2="380.4" y2="620.9"/>
<line class="st12" x1="364.6" y1="612.1" x2="368.9" y2="624"/>
<line class="st12" x1="351.8" y1="618" x2="358.2" y2="629"/>
<line class="st12" x1="340.3" y1="626.1" x2="348.4" y2="635.8"/>
<line class="st12" x1="330.3" y1="636" x2="340" y2="644.2"/>
<line class="st12" x1="322.3" y1="647.6" x2="333.2" y2="653.9"/>
<line class="st12" x1="316.3" y1="660.3" x2="328.2" y2="664.6"/>
<line class="st12" x1="312.6" y1="673.9" x2="325.1" y2="676.1"/>
<line class="st13" x1="334.5" y1="745.6" x2="366.7" y2="713.4"/>
<line class="st13" x1="366.7" y1="713.4" x2="372.9" y2="725.1"/>
<line class="st14" x1="372.9" y1="725.1" x2="410.8" y2="648.9"/>
<line class="st14" x1="420" y1="660.1" x2="410.8" y2="648.9"/>
<line class="st13" x1="449.5" y1="630.6" x2="420" y2="660.1"/>
<polygon class="st15" points="461.5,620.7 447,626.2 450.4,630.1 453.7,634.1 "/>
<text transform="matrix(1 0 0 1 403.8827 687.9272)" class="st16 st8 st17">money</text>
<text transform="matrix(1 0 0 1 435.2382 719.2612)" class="st16 st8 st17">days</text>
</svg>
