<?xml version="1.0" encoding="utf-8"?>
<!-- Generator: Adobe Illustrator 21.0.0, SVG Export Plug-In . SVG Version: 6.00 Build 0)  -->
<svg version="1.1" id="Layer_1" xmlns="http://www.w3.org/2000/svg" xmlns:xlink="http://www.w3.org/1999/xlink" x="0px" y="0px"
	 viewBox="0 0 612 612" style="enable-background:new 0 0 612 612;" xml:space="preserve">
<style type="text/css">
	.st0{fill:#FCEE21;stroke:#FFF200;stroke-miterlimit:10;}
	.st1{fill:#FCEE21;stroke:#FFF200;stroke-width:6;stroke-miterlimit:10;}
	.st2{fill:none;stroke:#30BFC7;stroke-width:6;stroke-miterlimit:10;}
	.st3{fill:#30BFC7;stroke:#30BFC7;stroke-width:6;stroke-miterlimit:10;}
</style>
<path class="st0" d="M248.6,495l153.2-308.2l37.2,45.2l56-56c-43.1-43.1-102.6-69.8-168.4-69.8c-65.8,0-125.3,26.7-168.4,69.8
	C115,219.3,88.4,278.8,88.4,344.6S115,469.9,158.1,513l65.5-65.5L248.6,495z"/>
<line class="st1" x1="51" y1="344" x2="-0.2" y2="344"/>
<line class="st1" x1="55.1" y1="391.8" x2="4.7" y2="400.7"/>
<line class="st1" x1="67.5" y1="438.1" x2="19.4" y2="455.6"/>
<line class="st1" x1="87.7" y1="481.7" x2="43.4" y2="507.2"/>
<line class="st1" x1="115.2" y1="521" x2="76" y2="553.9"/>
<line class="st1" x1="536.3" y1="94.4" x2="503.4" y2="133.5"/>
<line class="st1" x1="489.7" y1="61.7" x2="464.1" y2="106"/>
<line class="st1" x1="438.2" y1="37.6" x2="420.7" y2="85.7"/>
<line class="st1" x1="383.2" y1="22.8" x2="374.3" y2="73.2"/>
<line class="st1" x1="326.5" y1="17.8" x2="326.5" y2="69"/>
<line class="st1" x1="269.8" y1="22.7" x2="278.7" y2="73.1"/>
<line class="st1" x1="214.9" y1="37.4" x2="232.4" y2="85.5"/>
<line class="st1" x1="163.3" y1="61.4" x2="188.9" y2="105.7"/>
<line class="st1" x1="116.6" y1="94" x2="149.5" y2="133.2"/>
<line class="st1" x1="76.4" y1="134.2" x2="115.6" y2="167.1"/>
<line class="st1" x1="43.7" y1="180.8" x2="88" y2="206.4"/>
<line class="st1" x1="19.6" y1="232.3" x2="67.7" y2="249.8"/>
<line class="st1" x1="4.8" y1="287.3" x2="55.2" y2="296.2"/>
<polyline class="st2" points="93.2,577 223.3,446.9 248.3,494.4 401.5,186.3 438.7,231.5 558.2,112.1 "/>
<path class="st3" d="M246.7,494.4"/>
<polygon class="st3" points="604.9,73.6 546.6,96.1 560.1,111.9 573.7,127.7 "/>
</svg>
