<?xml version="1.0" encoding="utf-8"?>
<!-- Generator: Adobe Illustrator 21.0.0, SVG Export Plug-In . SVG Version: 6.00 Build 0)  -->
<svg version="1.1" xmlns="http://www.w3.org/2000/svg" xmlns:xlink="http://www.w3.org/1999/xlink" x="0px" y="0px"
	 viewBox="0 0 1062.4 792" style="enable-background:new 0 0 1062.4 792;" xml:space="preserve">
<style type="text/css">
	.st0{fill:#FFFFFF;stroke:#000000;stroke-miterlimit:10;}
	.st1{fill:none;stroke:#000000;stroke-miterlimit:10;}
	.st2{fill:none;stroke:#000000;stroke-width:2;stroke-miterlimit:10;}
	.st3{stroke:#000000;stroke-miterlimit:10;}
	.st4{fill:#FCEE21;stroke:#FFF200;stroke-miterlimit:10;}
	.st5{fill:#FCEE21;stroke:#FFF200;stroke-width:6;stroke-miterlimit:10;}
	.st6{fill:none;stroke:#30BFC7;stroke-width:6;stroke-miterlimit:10;}
	.st7{fill:#30BFC7;stroke:#30BFC7;stroke-width:6;stroke-miterlimit:10;}
	.st8{fill:#30BFC7;}
	.st9{font-family:'CMUConcrete-Roman';}
	.st10{font-size:140px;}
	.st11{font-size:40px;}
	.st12{fill:#7553A2;}
	.st13{fill:#FFFFFF;stroke:#FFFFFF;stroke-miterlimit:10;}
	.st14{fill:none;stroke:#FFFFFF;stroke-miterlimit:10;}
	.st15{fill:none;stroke:#FFFFFF;stroke-width:2;stroke-miterlimit:10;}
	.st16{fill:#F1F2F2;stroke:#FFFFFF;stroke-miterlimit:10;}
	.st17{fill:#FFFFFF;}
	.st18{font-size:33.123px;}
	.st19{fill:#FCEE21;}
	.st20{stroke:#000000;stroke-width:2;stroke-miterlimit:10;}
	.st21{fill:#EE9F2E;}
</style>
<g id="Layer_1">
	<path class="st0" d="M102.5,579.1l45.8-92l11.1,13.5l16.7-16.7C163.2,471,145.4,463,125.7,463c-19.6,0-37.4,8-50.3,20.8
		c-12.9,12.9-20.8,30.7-20.8,50.3s8,37.4,20.8,50.3L95,564.9L102.5,579.1z"/>
	<line class="st1" x1="43.3" y1="534.2" x2="28" y2="534.2"/>
	<line class="st1" x1="44.5" y1="548.5" x2="29.5" y2="551.2"/>
	<line class="st1" x1="48.2" y1="562.4" x2="33.8" y2="567.6"/>
	<line class="st1" x1="54.2" y1="575.4" x2="41" y2="583"/>
	<line class="st1" x1="62.5" y1="587.1" x2="50.7" y2="596.9"/>
	<line class="st1" x1="188.2" y1="459.7" x2="178.4" y2="471.4"/>
	<line class="st1" x1="174.3" y1="449.9" x2="166.7" y2="463.2"/>
	<line class="st1" x1="158.9" y1="442.7" x2="153.7" y2="457.1"/>
	<line class="st1" x1="142.5" y1="438.3" x2="139.8" y2="453.4"/>
	<line class="st1" x1="125.6" y1="436.8" x2="125.6" y2="452.1"/>
	<line class="st1" x1="108.6" y1="438.3" x2="111.3" y2="453.3"/>
	<line class="st1" x1="92.2" y1="442.7" x2="97.4" y2="457"/>
	<line class="st1" x1="76.8" y1="449.8" x2="84.4" y2="463.1"/>
	<line class="st1" x1="62.9" y1="459.6" x2="72.7" y2="471.3"/>
	<line class="st1" x1="50.9" y1="471.6" x2="62.6" y2="481.4"/>
	<line class="st1" x1="41.1" y1="485.5" x2="54.3" y2="493.1"/>
	<line class="st1" x1="33.9" y1="500.9" x2="48.3" y2="506.1"/>
	<line class="st1" x1="29.5" y1="517.3" x2="44.5" y2="520"/>
	<polyline class="st2" points="55.9,603.8 94.8,565 102.5,579.1 111.3,560.9 	"/>
	<polyline class="st2" points="102.2,579.2 148,487.1 159.1,500.6 180.4,479.4 180.4,479.4 180.4,479.4 	"/>
	<line class="st2" x1="194.8" y1="465" x2="159.1" y2="500.6"/>
	<polygon class="st3" points="207.9,453.5 190.5,460.2 194.5,465 198.5,469.7 	"/>
	<path class="st4" d="M185.6,328l97.1-195.3l23.6,28.7l35.5-35.5c-27.3-27.3-65-44.2-106.7-44.2c-41.7,0-79.4,16.9-106.7,44.2
		c-27.3,27.3-44.2,65-44.2,106.7s16.9,79.4,44.2,106.7l41.5-41.5L185.6,328z"/>
	<line class="st5" x1="60.4" y1="232.3" x2="28" y2="232.3"/>
	<line class="st5" x1="63" y1="262.6" x2="31.1" y2="268.2"/>
	<line class="st5" x1="70.9" y1="292" x2="40.4" y2="303.1"/>
	<line class="st5" x1="83.7" y1="319.6" x2="55.6" y2="335.8"/>
	<line class="st5" x1="101.1" y1="344.5" x2="76.3" y2="365.3"/>
	<line class="st5" x1="367.9" y1="74.1" x2="347.1" y2="99"/>
	<line class="st5" x1="338.4" y1="53.4" x2="322.2" y2="81.5"/>
	<line class="st5" x1="305.8" y1="38.2" x2="294.7" y2="68.6"/>
	<line class="st5" x1="270.9" y1="28.8" x2="265.3" y2="60.7"/>
	<line class="st5" x1="235" y1="25.6" x2="235" y2="58"/>
	<line class="st5" x1="199.1" y1="28.7" x2="204.7" y2="60.7"/>
	<line class="st5" x1="164.3" y1="38" x2="175.3" y2="68.5"/>
	<line class="st5" x1="131.6" y1="53.3" x2="147.8" y2="81.3"/>
	<line class="st5" x1="102" y1="73.9" x2="122.9" y2="98.8"/>
	<line class="st5" x1="76.5" y1="99.4" x2="101.3" y2="120.2"/>
	<line class="st5" x1="55.8" y1="128.9" x2="83.9" y2="145.1"/>
	<line class="st5" x1="40.5" y1="161.6" x2="71" y2="172.7"/>
	<line class="st5" x1="31.2" y1="196.4" x2="63.1" y2="202"/>
	<polyline class="st6" points="87.2,380 169.6,297.5 185.4,327.7 282.5,132.4 306.1,161.1 381.8,85.4 	"/>
	<path class="st7" d="M184.4,327.7"/>
	<polygon class="st7" points="411.4,61 374.5,75.2 383.1,85.3 391.6,95.3 	"/>
	<text transform="matrix(1 0 0 1 281.3281 240.5133)" class="st8 st9 st10">money</text>
	<text transform="matrix(1 0 0 1 389.3489 354.9088)" class="st8 st9 st10">days</text>
	<text transform="matrix(1 0 0 1 140.0053 534.2386)" class="st9 st11">money</text>
	<text transform="matrix(1 0 0 1 177.5371 572.0788)" class="st9 st11">days</text>
	<g>
		<rect x="555.4" y="596.2" class="st12" width="226.2" height="158.8"/>
		<g>
			<path class="st13" d="M635.8,724.4l37.9-76.2l9.2,11.2l13.8-13.8c-10.7-10.7-25.4-17.3-41.7-17.3s-31,6.6-41.7,17.3
				c-10.7,10.7-17.3,25.4-17.3,41.7s6.6,31,17.3,41.7l16.2-16.2L635.8,724.4z"/>
			<line class="st14" x1="587" y1="687.2" x2="574.3" y2="687.2"/>
			<line class="st13" x1="588" y1="699" x2="575.5" y2="701.2"/>
			<line class="st13" x1="591.1" y1="710.5" x2="579.2" y2="714.8"/>
			<line class="st13" x1="596.1" y1="721.2" x2="585.1" y2="727.6"/>
			<line class="st13" x1="602.9" y1="731" x2="593.2" y2="739.1"/>
			<line class="st14" x1="707" y1="625.4" x2="698.9" y2="635.1"/>
			<line class="st14" x1="695.5" y1="617.4" x2="689.2" y2="628.3"/>
			<line class="st14" x1="682.7" y1="611.4" x2="678.4" y2="623.3"/>
			<line class="st14" x1="669.1" y1="607.7" x2="666.9" y2="620.2"/>
			<line class="st14" x1="655.1" y1="606.5" x2="655.1" y2="619.2"/>
			<line class="st14" x1="641.1" y1="607.7" x2="643.3" y2="620.2"/>
			<line class="st14" x1="627.5" y1="611.3" x2="631.8" y2="623.2"/>
			<line class="st14" x1="614.7" y1="617.3" x2="621.1" y2="628.2"/>
			<line class="st14" x1="603.2" y1="625.3" x2="611.3" y2="635"/>
			<line class="st14" x1="593.2" y1="635.3" x2="602.9" y2="643.4"/>
			<line class="st14" x1="585.2" y1="646.8" x2="596.1" y2="653.1"/>
			<line class="st14" x1="579.2" y1="659.6" x2="591.1" y2="663.9"/>
			<line class="st14" x1="575.6" y1="673.2" x2="588" y2="675.4"/>
			<polyline class="st15" points="597.4,744.8 629.6,712.6 635.8,724.4 673.7,648.2 			"/>
			<line class="st15" x1="712.4" y1="629.8" x2="682.9" y2="659.4"/>
			<polygon class="st16" points="724.4,619.9 709.9,625.5 713.3,629.4 716.6,633.3 			"/>
			<text transform="matrix(1 0 0 1 666.7959 687.1736)" class="st17 st9 st18">money</text>
			<text transform="matrix(1 0 0 1 698.1514 718.5076)" class="st17 st9 st18">days</text>
			<polyline class="st15" points="642.2,711.5 635.8,724.4 673.7,648.2 682.9,659.4 691.8,650.4 691.8,650.4 			"/>
		</g>
	</g>
	<g>
		<rect x="555.4" y="426.9" class="st19" width="226.2" height="158.8"/>
		<path class="st1" d="M635.8,555.1l37.9-76.2l9.2,11.2l13.8-13.8C686,465.6,671.3,459,655.1,459s-31,6.6-41.7,17.3
			c-10.7,10.7-17.3,25.4-17.3,41.7c0,16.3,6.6,31,17.3,41.7l16.2-16.2L635.8,555.1z"/>
		<line class="st3" x1="587" y1="517.9" x2="574.3" y2="517.9"/>
		<line class="st3" x1="588" y1="529.7" x2="575.5" y2="531.9"/>
		<line class="st3" x1="591.1" y1="541.2" x2="579.2" y2="545.5"/>
		<line class="st3" x1="596.1" y1="551.9" x2="585.1" y2="558.3"/>
		<line class="st3" x1="602.9" y1="561.7" x2="593.2" y2="569.8"/>
		<line class="st3" x1="707" y1="456.1" x2="698.9" y2="465.8"/>
		<line class="st3" x1="695.5" y1="448.1" x2="689.2" y2="459"/>
		<line class="st3" x1="682.7" y1="442.1" x2="678.4" y2="454"/>
		<line class="st3" x1="669.1" y1="438.4" x2="666.9" y2="450.9"/>
		<line class="st3" x1="655.1" y1="437.2" x2="655.1" y2="449.9"/>
		<line class="st3" x1="641.1" y1="438.4" x2="643.3" y2="450.9"/>
		<line class="st3" x1="627.5" y1="442.1" x2="631.8" y2="453.9"/>
		<line class="st3" x1="614.7" y1="448" x2="621.1" y2="458.9"/>
		<line class="st3" x1="603.2" y1="456.1" x2="611.3" y2="465.7"/>
		<line class="st3" x1="593.2" y1="466" x2="602.9" y2="474.1"/>
		<line class="st3" x1="585.2" y1="477.5" x2="596.1" y2="483.8"/>
		<line class="st3" x1="579.2" y1="490.3" x2="591.1" y2="494.6"/>
		<line class="st3" x1="575.6" y1="503.9" x2="588" y2="506.1"/>
		<polyline class="st2" points="597.4,575.5 629.6,543.3 635.8,555.1 673.7,478.9 		"/>
		<line class="st20" x1="712.4" y1="460.5" x2="682.9" y2="490.1"/>
		<polygon class="st3" points="724.4,450.6 709.9,456.2 713.3,460.1 716.6,464 		"/>
		<text transform="matrix(1 0 0 1 666.7959 517.8787)" class="st9 st18">money</text>
		<text transform="matrix(1 0 0 1 698.1514 549.2127)" class="st9 st18">days</text>
		<polyline class="st2" points="642.2,542.2 635.8,555.1 673.7,478.9 682.9,490.1 691.8,481.1 691.8,481.1 		"/>
	</g>
	<g>
		<rect x="319.2" y="596.2" class="st21" width="226.2" height="158.8"/>
		<g>
			<path class="st13" d="M399.5,724.4l37.9-76.2l9.2,11.2l13.8-13.8c-10.7-10.7-25.4-17.3-41.7-17.3c-16.3,0-31,6.6-41.7,17.3
				c-10.7,10.7-17.3,25.4-17.3,41.7s6.6,31,17.3,41.7l16.2-16.2L399.5,724.4z"/>
			<line class="st14" x1="350.7" y1="687.2" x2="338.1" y2="687.2"/>
			<line class="st13" x1="351.7" y1="699" x2="339.3" y2="701.2"/>
			<line class="st13" x1="354.8" y1="710.5" x2="342.9" y2="714.8"/>
			<line class="st13" x1="359.8" y1="721.2" x2="348.8" y2="727.6"/>
			<line class="st13" x1="366.6" y1="731" x2="356.9" y2="739.1"/>
			<line class="st14" x1="470.7" y1="625.4" x2="462.6" y2="635.1"/>
			<line class="st14" x1="459.2" y1="617.4" x2="452.9" y2="628.3"/>
			<line class="st14" x1="446.5" y1="611.4" x2="442.1" y2="623.3"/>
			<line class="st14" x1="432.9" y1="607.7" x2="430.7" y2="620.2"/>
			<line class="st14" x1="418.9" y1="606.5" x2="418.9" y2="619.2"/>
			<line class="st14" x1="404.8" y1="607.7" x2="407" y2="620.2"/>
			<line class="st14" x1="391.2" y1="611.3" x2="395.6" y2="623.2"/>
			<line class="st14" x1="378.5" y1="617.3" x2="384.8" y2="628.2"/>
			<line class="st14" x1="366.9" y1="625.3" x2="375.1" y2="635"/>
			<line class="st14" x1="357" y1="635.3" x2="366.7" y2="643.4"/>
			<line class="st14" x1="348.9" y1="646.8" x2="359.9" y2="653.1"/>
			<line class="st14" x1="342.9" y1="659.6" x2="354.8" y2="663.9"/>
			<line class="st14" x1="339.3" y1="673.2" x2="351.8" y2="675.4"/>
			<polyline class="st15" points="361.2,744.8 393.3,712.6 399.5,724.4 437.4,648.2 			"/>
			<line class="st15" x1="476.2" y1="629.8" x2="446.6" y2="659.4"/>
			<polygon class="st16" points="488.1,619.9 473.7,625.5 477,629.4 480.4,633.3 			"/>
			<text transform="matrix(1 0 0 1 430.5389 687.1736)" class="st17 st9 st18">money</text>
			<text transform="matrix(1 0 0 1 461.8943 718.5076)" class="st17 st9 st18">days</text>
			<polyline class="st15" points="405.9,711.5 399.5,724.4 437.4,648.2 446.6,659.4 455.5,650.4 455.5,650.4 			"/>
		</g>
	</g>
	<g>
		<rect x="319.2" y="426.9" class="st8" width="226.2" height="158.8"/>
		<g>
			<path class="st13" d="M399.5,555.1l37.9-76.2l9.2,11.2l13.8-13.8c-10.7-10.7-25.4-17.3-41.7-17.3c-16.3,0-31,6.6-41.7,17.3
				c-10.7,10.7-17.3,25.4-17.3,41.7c0,16.3,6.6,31,17.3,41.7l16.2-16.2L399.5,555.1z"/>
			<line class="st14" x1="350.7" y1="517.9" x2="338.1" y2="517.9"/>
			<line class="st13" x1="351.7" y1="529.7" x2="339.3" y2="531.9"/>
			<line class="st13" x1="354.8" y1="541.2" x2="342.9" y2="545.5"/>
			<line class="st13" x1="359.8" y1="551.9" x2="348.8" y2="558.3"/>
			<line class="st13" x1="366.6" y1="561.7" x2="356.9" y2="569.8"/>
			<line class="st14" x1="470.7" y1="456.1" x2="462.6" y2="465.8"/>
			<line class="st14" x1="459.2" y1="448.1" x2="452.9" y2="459"/>
			<line class="st14" x1="446.5" y1="442.1" x2="442.1" y2="454"/>
			<line class="st14" x1="432.9" y1="438.4" x2="430.7" y2="450.9"/>
			<line class="st14" x1="418.9" y1="437.2" x2="418.9" y2="449.9"/>
			<line class="st14" x1="404.8" y1="438.4" x2="407" y2="450.9"/>
			<line class="st14" x1="391.2" y1="442.1" x2="395.6" y2="453.9"/>
			<line class="st14" x1="378.5" y1="448" x2="384.8" y2="458.9"/>
			<line class="st14" x1="366.9" y1="456.1" x2="375.1" y2="465.7"/>
			<line class="st14" x1="357" y1="466" x2="366.7" y2="474.1"/>
			<line class="st14" x1="348.9" y1="477.5" x2="359.9" y2="483.8"/>
			<line class="st14" x1="342.9" y1="490.3" x2="354.8" y2="494.6"/>
			<line class="st14" x1="339.3" y1="503.9" x2="351.8" y2="506.1"/>
			<polyline class="st15" points="361.2,575.5 393.3,543.3 399.5,555.1 437.4,478.9 			"/>
			<line class="st15" x1="476.2" y1="460.5" x2="446.6" y2="490.1"/>
			<polygon class="st16" points="488.1,450.6 473.7,456.2 477,460.1 480.4,464 			"/>
			<text transform="matrix(1 0 0 1 430.5388 517.8787)" class="st17 st9 st18">money</text>
			<text transform="matrix(1 0 0 1 461.8943 549.2127)" class="st17 st9 st18">days</text>
			<polyline class="st15" points="405.9,542.2 399.5,555.1 437.4,478.9 446.6,490.1 455.5,481.1 455.5,481.1 			"/>
		</g>
	</g>
</g>
<g id="Layer_2">
</g>
</svg>
