<?xml version="1.0" encoding="utf-8"?>
<!-- Generator: Adobe Illustrator 21.0.0, SVG Export Plug-In . SVG Version: 6.00 Build 0)  -->
<svg version="1.1" id="Layer_1" xmlns="http://www.w3.org/2000/svg" xmlns:xlink="http://www.w3.org/1999/xlink" x="0px" y="0px"
	 viewBox="0 0 1948 792" style="enable-background:new 0 0 1948 792;" xml:space="preserve">
<style type="text/css">
	.st0{fill:#FFFFFF;stroke:#000000;stroke-miterlimit:10;}
	.st1{fill:none;stroke:#000000;stroke-miterlimit:10;}
	.st2{fill:url(#SVGID_1_);}
	.st3{fill:none;stroke:#F7941D;stroke-width:2;stroke-miterlimit:10;}
	.st4{fill:url(#SVGID_2_);}
	.st5{fill:#FCEE21;stroke:#FFF200;stroke-miterlimit:10;}
	.st6{fill:#FCEE21;stroke:#FFF200;stroke-width:4;stroke-miterlimit:10;}
	.st7{fill:#30BFC7;}
	.st8{font-family:'CMUConcrete-Roman';}
	.st9{font-size:25px;}
	.st10{fill:#FCEE21;}
	.st11{font-size:58px;}
	.st12{fill:none;stroke:#000000;stroke-width:2;stroke-miterlimit:10;}
	.st13{stroke:#000000;stroke-miterlimit:10;}
	.st14{fill:#FCEE21;stroke:#FFF200;stroke-width:6;stroke-miterlimit:10;}
	.st15{fill:#30BFC7;stroke:#30BFC7;stroke-width:6;stroke-miterlimit:10;}
	.st16{font-size:140px;}
	.st17{fill:#FAA51A;stroke:#FAA51A;stroke-miterlimit:10;}
</style>
<path class="st0" d="M243.1,154.5l45.8-92L300,75.9l16.7-16.7c-12.9-12.9-30.7-20.8-50.3-20.8c-19.6,0-37.4,8-50.3,20.8
	c-12.9,12.9-20.8,30.7-20.8,50.3s8,37.4,20.8,50.3l19.6-19.6L243.1,154.5z"/>
<line class="st1" x1="184.2" y1="109.5" x2="168.9" y2="109.5"/>
<line class="st1" x1="185.4" y1="123.8" x2="170.4" y2="126.4"/>
<line class="st1" x1="189.1" y1="137.6" x2="174.8" y2="142.9"/>
<line class="st1" x1="195.2" y1="150.6" x2="181.9" y2="158.3"/>
<line class="st1" x1="203.4" y1="162.4" x2="191.7" y2="172.2"/>
<line class="st1" x1="329.1" y1="35" x2="319.3" y2="46.7"/>
<line class="st1" x1="315.2" y1="25.2" x2="307.6" y2="38.4"/>
<line class="st1" x1="299.8" y1="18" x2="294.6" y2="32.4"/>
<line class="st1" x1="283.4" y1="13.6" x2="280.8" y2="28.6"/>
<line class="st1" x1="266.5" y1="12.1" x2="266.5" y2="27.4"/>
<line class="st1" x1="249.6" y1="13.6" x2="252.2" y2="28.6"/>
<line class="st1" x1="233.1" y1="17.9" x2="238.4" y2="32.3"/>
<line class="st1" x1="217.7" y1="25.1" x2="225.4" y2="38.3"/>
<line class="st1" x1="203.8" y1="34.9" x2="213.6" y2="46.6"/>
<line class="st1" x1="191.8" y1="46.9" x2="203.5" y2="56.7"/>
<line class="st1" x1="182" y1="60.8" x2="195.2" y2="68.4"/>
<line class="st1" x1="174.8" y1="76.2" x2="189.2" y2="81.4"/>
<line class="st1" x1="170.4" y1="92.6" x2="185.5" y2="95.2"/>
<line class="st1" x1="196.8" y1="179.1" x2="235.7" y2="140.3"/>
<line class="st1" x1="235.7" y1="140.3" x2="243.1" y2="154.5"/>
<line class="st1" x1="243.1" y1="154.5" x2="288.9" y2="62.4"/>
<line class="st1" x1="300" y1="75.9" x2="288.9" y2="62.4"/>
<line class="st1" x1="335.7" y1="40.2" x2="300" y2="75.9"/>
<linearGradient id="SVGID_1_" gradientUnits="userSpaceOnUse" x1="1255.95" y1="69.7191" x2="1255.95" y2="202.2401">
	<stop  offset="0" style="stop-color:#FFF33B"/>
	<stop  offset="5.948725e-02" style="stop-color:#FFE029"/>
	<stop  offset="0.1303" style="stop-color:#FFD218"/>
	<stop  offset="0.2032" style="stop-color:#FEC90F"/>
	<stop  offset="0.2809" style="stop-color:#FDC70C"/>
	<stop  offset="0.6685" style="stop-color:#F3903F"/>
	<stop  offset="0.8876" style="stop-color:#ED683C"/>
	<stop  offset="1" style="stop-color:#E93E3A"/>
</linearGradient>
<path class="st2" d="M1241.9,196.4l49.9-100.4l12.1,14.7l18.2-18.2c-14-14-33.5-22.7-54.9-22.7s-40.8,8.7-54.9,22.7
	c-14,14-22.7,33.5-22.7,54.9s8.7,40.8,22.7,54.9l21.3-21.3L1241.9,196.4z"/>
<line class="st3" x1="1177.6" y1="147.3" x2="1160.9" y2="147.3"/>
<line class="st3" x1="1178.9" y1="162.9" x2="1162.5" y2="165.8"/>
<line class="st3" x1="1183" y1="178" x2="1167.3" y2="183.7"/>
<line class="st3" x1="1189.6" y1="192.2" x2="1175.1" y2="200.6"/>
<line class="st3" x1="1198.5" y1="205" x2="1185.8" y2="215.8"/>
<line class="st3" x1="1335.8" y1="66" x2="1325.1" y2="78.8"/>
<line class="st3" x1="1320.6" y1="55.3" x2="1312.3" y2="69.8"/>
<line class="st3" x1="1303.8" y1="47.5" x2="1298.1" y2="63.2"/>
<line class="st3" x1="1285.9" y1="42.7" x2="1283" y2="59.1"/>
<line class="st3" x1="1267.4" y1="41" x2="1267.4" y2="57.7"/>
<line class="st3" x1="1248.9" y1="42.6" x2="1251.8" y2="59.1"/>
<line class="st3" x1="1231" y1="47.4" x2="1236.7" y2="63.1"/>
<line class="st3" x1="1214.2" y1="55.3" x2="1222.5" y2="69.7"/>
<line class="st3" x1="1199" y1="65.9" x2="1209.7" y2="78.7"/>
<line class="st3" x1="1185.9" y1="79" x2="1198.6" y2="89.7"/>
<line class="st3" x1="1175.2" y1="94.2" x2="1189.7" y2="102.5"/>
<line class="st3" x1="1167.4" y1="111" x2="1183" y2="116.7"/>
<line class="st3" x1="1162.6" y1="128.9" x2="1179" y2="131.8"/>
<linearGradient id="SVGID_2_" gradientUnits="userSpaceOnUse" x1="1191.3707" y1="146.5075" x2="1345.1967" y2="146.5075">
	<stop  offset="0" style="stop-color:#4DB748"/>
	<stop  offset="7.928741e-02" style="stop-color:#56BA5D"/>
	<stop  offset="0.2032" style="stop-color:#61BF81"/>
	<stop  offset="0.3303" style="stop-color:#6AC39C"/>
	<stop  offset="0.4586" style="stop-color:#70C7B3"/>
	<stop  offset="0.5884" style="stop-color:#74CBC6"/>
	<stop  offset="0.7204" style="stop-color:#77CDD2"/>
	<stop  offset="0.8559" style="stop-color:#79CEDA"/>
	<stop  offset="1" style="stop-color:#7ACFDD"/>
</linearGradient>
<polyline class="st4" points="1345.2,69.7 1345.2,223.3 1191.4,223.3 1233.8,180.9 1241.9,196.4 1291.8,95.9 1304,110.7 
	1342.9,71.8 "/>
<path class="st5" d="M150.1,569.6L229.5,410l19.3,23.4l29-29c-22.3-22.3-53.2-36.1-87.2-36.1c-34.1,0-64.9,13.8-87.2,36.1
	c-22.3,22.3-36.1,53.2-36.1,87.2s13.8,64.9,36.1,87.2l33.9-33.9L150.1,569.6z"/>
<line class="st6" x1="48" y1="491.6" x2="21.5" y2="491.6"/>
<line class="st6" x1="50.1" y1="516.4" x2="24" y2="521"/>
<line class="st6" x1="56.5" y1="540.4" x2="31.6" y2="549.5"/>
<line class="st6" x1="67" y1="562.9" x2="44" y2="576.2"/>
<line class="st6" x1="81.2" y1="583.3" x2="60.9" y2="600.3"/>
<line class="st6" x1="299.3" y1="362.4" x2="282.2" y2="382.7"/>
<line class="st6" x1="275.1" y1="345.5" x2="261.9" y2="368.4"/>
<line class="st6" x1="248.4" y1="333" x2="239.4" y2="357.9"/>
<line class="st6" x1="220" y1="325.3" x2="215.4" y2="351.4"/>
<line class="st6" x1="190.6" y1="322.7" x2="190.6" y2="349.2"/>
<line class="st6" x1="161.3" y1="325.3" x2="165.9" y2="351.4"/>
<line class="st6" x1="132.8" y1="332.9" x2="141.9" y2="357.8"/>
<line class="st6" x1="106.1" y1="345.3" x2="119.3" y2="368.3"/>
<line class="st6" x1="82" y1="362.2" x2="99" y2="382.5"/>
<line class="st6" x1="61.1" y1="383" x2="81.4" y2="400"/>
<line class="st6" x1="44.2" y1="407.1" x2="67.1" y2="420.4"/>
<line class="st6" x1="31.7" y1="433.8" x2="56.6" y2="442.9"/>
<line class="st6" x1="24.1" y1="462.3" x2="50.1" y2="466.9"/>
<polyline class="st7" points="314.2,368.3 314.2,612.3 69.8,612.3 137.2,544.9 150.1,569.6 229.5,410 248.7,433.4 310.6,371.6 "/>
<text transform="matrix(1 0 0 1 221.5477 177.5818)" class="st8 st9">moneydays</text>
<text transform="matrix(1 0 0 1 146.5334 597.9197)" class="st10 st8 st11">money</text>
<text transform="matrix(1 0 0 1 316.9388 597.9196)" class="st7 st8 st11">days</text>
<path class="st0" d="M496.3,159.8l45.8-92l11.1,13.5l16.7-16.7c-12.9-12.9-30.7-20.8-50.3-20.8s-37.4,8-50.3,20.8
	c-12.9,12.9-20.8,30.7-20.8,50.3s8,37.4,20.8,50.3l19.6-19.6L496.3,159.8z"/>
<line class="st1" x1="437.3" y1="114.9" x2="422.1" y2="114.9"/>
<line class="st1" x1="438.6" y1="129.2" x2="423.5" y2="131.8"/>
<line class="st1" x1="442.3" y1="143" x2="427.9" y2="148.2"/>
<line class="st1" x1="448.3" y1="156" x2="435.1" y2="163.6"/>
<line class="st1" x1="456.5" y1="167.7" x2="444.8" y2="177.6"/>
<line class="st1" x1="582.3" y1="40.3" x2="572.5" y2="52"/>
<line class="st1" x1="568.4" y1="30.6" x2="560.7" y2="43.8"/>
<line class="st1" x1="553" y1="23.4" x2="547.7" y2="37.7"/>
<line class="st1" x1="536.6" y1="19" x2="533.9" y2="34"/>
<line class="st1" x1="519.6" y1="17.5" x2="519.6" y2="32.7"/>
<line class="st1" x1="502.7" y1="18.9" x2="505.4" y2="34"/>
<line class="st1" x1="486.3" y1="23.3" x2="491.5" y2="37.7"/>
<line class="st1" x1="470.9" y1="30.5" x2="478.5" y2="43.7"/>
<line class="st1" x1="456.9" y1="40.2" x2="466.8" y2="51.9"/>
<line class="st1" x1="444.9" y1="52.2" x2="456.6" y2="62"/>
<line class="st1" x1="435.2" y1="66.1" x2="448.4" y2="73.8"/>
<line class="st1" x1="428" y1="81.5" x2="442.3" y2="86.8"/>
<line class="st1" x1="423.5" y1="97.9" x2="438.6" y2="100.6"/>
<line class="st12" x1="450" y1="184.5" x2="488.8" y2="145.6"/>
<line class="st12" x1="488.8" y1="145.6" x2="496.3" y2="159.8"/>
<line class="st12" x1="496.3" y1="159.8" x2="542" y2="67.8"/>
<line class="st12" x1="553.1" y1="81.3" x2="542" y2="67.8"/>
<line class="st12" x1="588.8" y1="45.6" x2="553.1" y2="81.3"/>
<polygon class="st13" points="603.3,33.6 585.8,40.4 589.9,45.1 593.9,49.8 "/>
<path class="st5" d="M710.8,598.4l97.1-195.3l23.6,28.7l35.5-35.5c-27.3-27.3-65-44.2-106.7-44.2c-41.7,0-79.4,16.9-106.7,44.2
	c-27.3,27.3-44.2,65-44.2,106.7s16.9,79.4,44.2,106.7l41.5-41.5L710.8,598.4z"/>
<line class="st14" x1="585.8" y1="503.1" x2="553.4" y2="503.1"/>
<line class="st14" x1="588.4" y1="533.4" x2="556.5" y2="539"/>
<line class="st14" x1="596.3" y1="562.8" x2="565.8" y2="573.9"/>
<line class="st14" x1="609.1" y1="590.3" x2="581" y2="606.5"/>
<line class="st14" x1="626.5" y1="615.3" x2="601.7" y2="636.1"/>
<line class="st14" x1="893.3" y1="344.9" x2="872.5" y2="369.7"/>
<line class="st14" x1="863.8" y1="324.2" x2="847.6" y2="352.3"/>
<line class="st14" x1="831.1" y1="308.9" x2="820.1" y2="339.4"/>
<line class="st14" x1="796.3" y1="299.6" x2="790.7" y2="331.5"/>
<line class="st14" x1="760.4" y1="296.4" x2="760.4" y2="328.8"/>
<line class="st14" x1="724.5" y1="299.5" x2="730.1" y2="331.4"/>
<line class="st14" x1="689.6" y1="308.8" x2="700.7" y2="339.3"/>
<line class="st14" x1="657" y1="324" x2="673.2" y2="352.1"/>
<line class="st14" x1="627.4" y1="344.7" x2="648.2" y2="369.5"/>
<line class="st14" x1="601.9" y1="370.2" x2="626.7" y2="391"/>
<line class="st14" x1="581.2" y1="399.7" x2="609.2" y2="415.9"/>
<line class="st14" x1="565.9" y1="432.4" x2="596.4" y2="443.4"/>
<line class="st14" x1="556.5" y1="467.2" x2="588.5" y2="472.8"/>
<line class="st15" x1="612.6" y1="650.8" x2="695" y2="568.3"/>
<line class="st15" x1="695" y1="568.3" x2="710.8" y2="598.4"/>
<line class="st15" x1="710.8" y1="598.4" x2="807.9" y2="403.2"/>
<line class="st15" x1="831.5" y1="431.8" x2="807.9" y2="403.2"/>
<line class="st15" x1="907.2" y1="356.1" x2="831.5" y2="431.8"/>
<polygon class="st15" points="936.8,331.8 899.9,346 908.4,356 917,366.1 "/>
<text transform="matrix(1 0 0 1 789.5768 509.8741)" class="st7 st8 st16">money</text>
<text transform="matrix(1 0 0 1 915.5418 625.6787)" class="st7 st8 st16">days</text>
<path class="st17" d="M1435.2,665.7l97.1-195.3l23.6,28.7l35.5-35.5c-27.3-27.3-65-44.2-106.7-44.2c-41.7,0-79.4,16.9-106.7,44.2
	c-27.3,27.3-44.2,65-44.2,106.7s16.9,79.4,44.2,106.7l41.5-41.5L1435.2,665.7z"/>
<line class="st15" x1="1336.9" y1="718" x2="1419.4" y2="635.6"/>
<line class="st15" x1="1419.4" y1="635.6" x2="1435.2" y2="665.7"/>
<line class="st15" x1="1435.2" y1="665.7" x2="1532.3" y2="470.4"/>
<line class="st15" x1="1555.8" y1="499.1" x2="1532.3" y2="470.4"/>
<line class="st15" x1="1631.5" y1="423.4" x2="1555.8" y2="499.1"/>
<polygon class="st15" points="1661.2,399 1624.2,413.3 1632.8,423.3 1641.4,433.3 "/>
<text transform="matrix(1 0 0 1 1513.9215 577.1661)" class="st7 st8 st16">money</text>
<text transform="matrix(1 0 0 1 1639.8865 692.9708)" class="st7 st8 st16">days</text>
</svg>
