<?xml version="1.0" encoding="utf-8"?>
<!-- Generator: Adobe Illustrator 21.0.0, SVG Export Plug-In . SVG Version: 6.00 Build 0)  -->
<svg version="1.1" id="Layer_1" xmlns="http://www.w3.org/2000/svg" xmlns:xlink="http://www.w3.org/1999/xlink" x="0px" y="0px"
	 viewBox="0 0 1242 2208" style="enable-background:new 0 0 1242 2208;" xml:space="preserve">
<style type="text/css">
	.st0{fill:#30BFC7;stroke:#00D85C;stroke-miterlimit:10;}
	.st1{fill:url(#SVGID_1_);}
	.st2{fill:#FFFFFF;stroke:#FFFFFF;stroke-miterlimit:10;}
	.st3{fill:none;stroke:#FFFFFF;stroke-width:16;stroke-miterlimit:10;}
	.st4{fill:#FFFFFF;}
	.st5{font-family:'CMUConcrete-Roman';}
	.st6{font-size:202.6494px;}
	.st7{letter-spacing:4;}
	.st8{fill:#FAFCFC;}
	.st9{font-family:'Lato-Regular';}
	.st10{font-size:91px;}
</style>
<rect x="2.5" y="0.5" class="st0" width="1236" height="2206"/>
<linearGradient id="SVGID_1_" gradientUnits="userSpaceOnUse" x1="210.9436" y1="660.6804" x2="939.5667" y2="660.6804">
	<stop  offset="0" style="stop-color:#FFFFFF"/>
	<stop  offset="1" style="stop-color:#FFFFFF;stop-opacity:0.2"/>
</linearGradient>
<path class="st1" d="M498,969.5l274.6-513.4l66.7,75.4l100.3-93.2C862.3,366.4,755.6,322,637.8,322c-117.9,0-224.6,44.4-301.8,116.2
	c-77.2,71.8-125,171-125,280.6s47.8,208.8,125,280.6l117.4-109.1L498,969.5z"/>
<polygon class="st2" points="1074,316.8 971.3,358.3 996.7,383.7 1022.1,409.1 "/>
<g>
	<polyline class="st3" points="220.2,1107 453.3,890.2 498,969.5 772.6,456.1 	"/>
	<line class="st3" x1="1053.3" y1="332.4" x2="839.3" y2="531.4"/>
	<polyline class="st3" points="544.6,882.4 498,969.5 772.6,456.1 839.3,531.4 904,471.3 904,471.3 	"/>
</g>
<text transform="matrix(1 0 0 1 148.7974 1340.5273)"><tspan x="0" y="0" class="st4 st5 st6">m</tspan><tspan x="170" y="0" class="st4 st5 st6 st7">o</tspan><tspan x="275.4" y="0" class="st4 st5 st6">neydays</tspan></text>
<text transform="matrix(1 0 0 1 311.5674 1920)" class="st8 st9 st10">Anyone can save</text>
</svg>
